<?xml version="1.0" encoding="iso-8859-1"?>
<!-- Generator: Adobe Illustrator 19.0.0, SVG Export Plug-In . SVG Version: 6.00 Build 0)  -->
<svg version="1.1" id="Layer_1" xmlns="http://www.w3.org/2000/svg" xmlns:xlink="http://www.w3.org/1999/xlink" x="0px" y="0px"
	 viewBox="0 0 512 512" style="enable-background:new 0 0 512 512;" xml:space="preserve">
<circle style="fill:#60C344;" cx="256" cy="256" r="256"/>
<path style="fill:#47AB4B;" d="M512,256c0-12.005-0.845-23.811-2.445-35.376L397.069,108.137L99.187,157.665l151.762,151.761
	L138.04,427.915l81.486,81.486c11.916,1.7,24.088,2.598,36.474,2.598C397.384,512,512,397.384,512,256z"/>
<path style="fill:#FF9451;" d="M406.194,186.065h-72.29v25.576h64.902c9.356,0,16.939,7.583,16.939,16.939v97.437
	c0,9.356-7.583,16.939-16.939,16.939h-64.902v25.576h72.29c19.401,0,35.126-15.727,35.126-35.126V221.191
	C441.32,201.792,425.593,186.065,406.194,186.065z"/>
<path style="fill:#FFCF35;" d="M311.705,447.086H179.938c-30.651,0-55.498-24.847-55.498-55.498v-263.53h242.762v263.53
	C367.202,422.24,342.356,447.086,311.705,447.086z"/>
<path style="fill:#FFB344;" d="M245.657,128.059v319.028h66.048c30.651,0,55.498-24.847,55.498-55.498v-263.53H245.657z"/>
<path style="fill:#FFECB3;" d="M183.091,407.557L183.091,407.557c-8.661,0-15.682-7.021-15.682-15.682V203.681
	c0-8.661,7.021-15.682,15.682-15.682l0,0c8.661,0,15.682,7.021,15.682,15.682v188.194
	C198.773,400.536,191.752,407.557,183.091,407.557z"/>
<path style="fill:#FFD863;" d="M183.091,187.997L183.091,187.997c-0.412,0-0.815,0.031-1.217,0.062v219.438
	c0.403,0.031,0.807,0.062,1.217,0.062l0,0c8.661,0,15.682-7.021,15.682-15.682V203.679
	C198.773,195.019,191.752,187.997,183.091,187.997z"/>
<path style="fill:#FFECB3;" d="M245.822,407.557L245.822,407.557c-8.661,0-15.682-7.021-15.682-15.682V203.681
	c0-8.661,7.021-15.682,15.682-15.682l0,0c8.661,0,15.682,7.021,15.682,15.682v188.194
	C261.504,400.536,254.483,407.557,245.822,407.557z"/>
<path style="fill:#FFD863;" d="M245.822,187.997c-0.25,0-0.493,0.026-0.74,0.038v219.484c0.247,0.012,0.49,0.036,0.74,0.036
	c8.661,0,15.682-7.021,15.682-15.682V203.679C261.504,195.019,254.483,187.997,245.822,187.997z"/>
<path style="fill:#FFECB3;" d="M308.553,407.557L308.553,407.557c-8.661,0-15.682-7.021-15.682-15.682V203.681
	c0-8.661,7.021-15.682,15.682-15.682l0,0c8.661,0,15.682,7.021,15.682,15.682v188.194
	C324.236,400.536,317.214,407.557,308.553,407.557z"/>
<path style="fill:#FFD863;" d="M308.553,187.997c-0.088,0-0.172,0.012-0.26,0.014v219.533c0.088,0.002,0.172,0.014,0.26,0.014
	c8.661,0,15.682-7.021,15.682-15.682V203.679C324.236,195.019,317.214,187.997,308.553,187.997z"/>
<path style="fill:#FFFFFF;" d="M364.249,90.598c-1.848,0-3.653,0.172-5.434,0.417c-6.854-11.686-19.515-19.556-34.042-19.556
	c-4.479,0-8.766,0.781-12.779,2.155c-10.845-13.695-27.607-22.492-46.433-22.492c-15.169,0-29,5.71-39.476,15.089
	c-10.476-9.38-24.307-15.089-39.476-15.089c-25.841,0-47.806,16.56-55.887,39.645c-1.1-0.093-2.203-0.169-3.325-0.169
	c-21.804,0-39.477,17.673-39.477,39.476s17.673,39.476,39.476,39.476c10.083,0,19.254-3.813,26.231-10.033
	c9.426,6.334,20.771,10.033,32.982,10.033c15.169,0,29-5.71,39.476-15.089c10.476,9.38,24.307,15.089,39.476,15.089
	c18.403,0,34.844-8.395,45.702-21.563c4.22,1.539,8.757,2.422,13.51,2.422c1.848,0,3.653-0.172,5.434-0.417
	c6.854,11.686,19.515,19.556,34.042,19.556c21.802,0,39.476-17.673,39.476-39.476S386.05,90.598,364.249,90.598z"/>
<path style="fill:#E0E0E0;" d="M364.247,90.598c-1.848,0-3.653,0.172-5.434,0.417c-6.854-11.686-19.515-19.558-34.042-19.558
	c-4.479,0-8.766,0.783-12.779,2.155c-10.845-13.695-27.607-22.492-46.433-22.492c-6.985,0-13.681,1.224-19.902,3.448v111.533
	c6.222,2.224,12.917,3.448,19.902,3.448c18.403,0,34.844-8.395,45.702-21.563c4.22,1.539,8.757,2.422,13.51,2.422
	c1.85,0,3.653-0.172,5.434-0.417c6.854,11.686,19.515,19.556,34.042,19.556c21.802,0,39.476-17.673,39.476-39.476
	S386.05,90.598,364.247,90.598z"/>
<g>
</g>
<g>
</g>
<g>
</g>
<g>
</g>
<g>
</g>
<g>
</g>
<g>
</g>
<g>
</g>
<g>
</g>
<g>
</g>
<g>
</g>
<g>
</g>
<g>
</g>
<g>
</g>
<g>
</g>
</svg>
